<?xml version="1.0" encoding="UTF-8"?>
<svg xmlns="http://www.w3.org/2000/svg" xmlns:xlink="http://www.w3.org/1999/xlink" width="2072pt" height="600pt" viewBox="0 0 2072 600" version="1.1">
<g id="surface0">
<path style="fill-rule:evenodd;fill:rgb(100%,100%,100%);fill-opacity:1;stroke-width:3;stroke-linecap:butt;stroke-linejoin:miter;stroke:rgb(0%,0%,0%);stroke-opacity:1;stroke-miterlimit:4;" d="M 75.499764 290.362539 L 125.500148 290.362539 C 153.113505 290.362539 175.500533 312.747448 175.500533 340.36194 L 175.500533 390.361341 C 175.500533 417.975833 153.113505 440.362865 125.500148 440.362865 L 75.499764 440.362865 C 47.886407 440.362865 25.499379 417.975833 25.499379 390.361341 L 25.499379 340.36194 C 25.499379 312.747448 47.886407 290.362539 75.499764 290.362539 Z M 75.499764 290.362539 " transform="matrix(1.840142,0,0,1.840491,1561.886113,-374.530675)"/>
<path style="fill-rule:evenodd;fill:rgb(0%,0%,0%);fill-opacity:1;stroke-width:3;stroke-linecap:butt;stroke-linejoin:miter;stroke:rgb(0%,0%,0%);stroke-opacity:1;stroke-miterlimit:4;" d="M 337.499601 227.362799 C 337.499601 234.264831 331.903906 239.861589 325.000567 239.861589 C 318.097228 239.861589 312.499409 234.264831 312.499409 227.362799 C 312.499409 220.458646 318.097228 214.861888 325.000567 214.861888 C 331.903906 214.861888 337.499601 220.458646 337.499601 227.362799 Z M 337.499601 227.362799 " transform="matrix(1.840142,0,0,1.840491,1081.609026,-187.720859)"/>
<path style="fill-rule:evenodd;fill:rgb(0%,0%,0%);fill-opacity:1;stroke-width:3;stroke-linecap:butt;stroke-linejoin:miter;stroke:rgb(0%,0%,0%);stroke-opacity:1;stroke-miterlimit:4;" d="M 337.499601 227.362956 C 337.499601 234.264987 331.903906 239.861745 325.000567 239.861745 C 318.097228 239.861745 312.499409 234.264987 312.499409 227.362956 C 312.499409 220.458802 318.097228 214.862044 325.000567 214.862044 C 331.903906 214.862044 337.499601 220.458802 337.499601 227.362956 Z M 337.499601 227.362956 " transform="matrix(1.840142,0,0,1.840491,1081.609026,-55.205521)"/>
<path style="fill-rule:evenodd;fill:rgb(0%,0%,0%);fill-opacity:1;stroke-width:3;stroke-linecap:butt;stroke-linejoin:miter;stroke:rgb(0%,0%,0%);stroke-opacity:1;stroke-miterlimit:4;" d="M 337.499601 227.362878 C 337.499601 234.264909 331.903906 239.861667 325.000567 239.861667 C 318.097228 239.861667 312.499409 234.264909 312.499409 227.362878 C 312.499409 220.458724 318.097228 214.861966 325.000567 214.861966 C 331.903906 214.861966 337.499601 220.458724 337.499601 227.362878 Z M 337.499601 227.362878 " transform="matrix(1.840142,0,0,1.840491,1081.609026,-121.46319)"/>
<path style="fill-rule:evenodd;fill:rgb(0%,0%,0%);fill-opacity:1;stroke-width:3;stroke-linecap:butt;stroke-linejoin:miter;stroke:rgb(0%,0%,0%);stroke-opacity:1;stroke-miterlimit:4;" d="M 337.500665 227.362799 C 337.500665 234.264831 331.902846 239.861589 324.999507 239.861589 C 318.096168 239.861589 312.500472 234.264831 312.500472 227.362799 C 312.500472 220.458646 318.096168 214.861888 324.999507 214.861888 C 331.902846 214.861888 337.500665 220.458646 337.500665 227.362799 Z M 337.500665 227.362799 " transform="matrix(1.840142,0,0,1.840491,1214.099257,-187.720859)"/>
<path style="fill-rule:evenodd;fill:rgb(0%,0%,0%);fill-opacity:1;stroke-width:3;stroke-linecap:butt;stroke-linejoin:miter;stroke:rgb(0%,0%,0%);stroke-opacity:1;stroke-miterlimit:4;" d="M 337.500665 227.362956 C 337.500665 234.264987 331.902846 239.861745 324.999507 239.861745 C 318.096168 239.861745 312.500472 234.264987 312.500472 227.362956 C 312.500472 220.458802 318.096168 214.862044 324.999507 214.862044 C 331.902846 214.862044 337.500665 220.458802 337.500665 227.362956 Z M 337.500665 227.362956 " transform="matrix(1.840142,0,0,1.840491,1214.099257,-55.205521)"/>
<path style="fill-rule:evenodd;fill:rgb(0%,0%,0%);fill-opacity:1;stroke-width:3;stroke-linecap:butt;stroke-linejoin:miter;stroke:rgb(0%,0%,0%);stroke-opacity:1;stroke-miterlimit:4;" d="M 337.500665 227.362878 C 337.500665 234.264909 331.902846 239.861667 324.999507 239.861667 C 318.096168 239.861667 312.500472 234.264909 312.500472 227.362878 C 312.500472 220.458724 318.096168 214.861966 324.999507 214.861966 C 331.902846 214.861966 337.500665 220.458724 337.500665 227.362878 Z M 337.500665 227.362878 " transform="matrix(1.840142,0,0,1.840491,1214.099257,-121.46319)"/>
<path style="fill-rule:evenodd;fill:rgb(100%,100%,100%);fill-opacity:1;stroke-width:3;stroke-linecap:butt;stroke-linejoin:miter;stroke:rgb(0%,0%,0%);stroke-opacity:1;stroke-miterlimit:4;" d="M 262.999907 277.862499 L 313.000291 277.862499 C 340.613648 277.862499 363.000676 300.247408 363.000676 327.8619 L 363.000676 377.861301 C 363.000676 405.475793 340.613648 427.862825 313.000291 427.862825 L 262.999907 427.862825 C 235.38655 427.862825 212.999522 405.475793 212.999522 377.861301 L 212.999522 327.8619 C 212.999522 300.247408 235.38655 277.862499 262.999907 277.862499 Z M 262.999907 277.862499 " transform="matrix(1.840142,0,0,1.840491,926.117019,-351.524466)"/>
<path style="fill-rule:evenodd;fill:rgb(0%,0%,0%);fill-opacity:1;stroke-width:3;stroke-linecap:butt;stroke-linejoin:miter;stroke:rgb(0%,0%,0%);stroke-opacity:1;stroke-miterlimit:4;" d="M 337.499745 227.362759 C 337.499745 234.264791 331.904049 239.861549 325.00071 239.861549 C 318.097371 239.861549 312.499552 234.264791 312.499552 227.362759 C 312.499552 220.458606 318.097371 214.861848 325.00071 214.861848 C 331.904049 214.861848 337.499745 220.458606 337.499745 227.362759 Z M 337.499745 227.362759 " transform="matrix(1.840142,0,0,1.840491,790.866575,-187.720785)"/>
<path style="fill-rule:evenodd;fill:rgb(0%,0%,0%);fill-opacity:1;stroke-width:3;stroke-linecap:butt;stroke-linejoin:miter;stroke:rgb(0%,0%,0%);stroke-opacity:1;stroke-miterlimit:4;" d="M 337.499745 227.362916 C 337.499745 234.264947 331.904049 239.861705 325.00071 239.861705 C 318.097371 239.861705 312.499552 234.264947 312.499552 227.362916 C 312.499552 220.458762 318.097371 214.862004 325.00071 214.862004 C 331.904049 214.862004 337.499745 220.458762 337.499745 227.362916 Z M 337.499745 227.362916 " transform="matrix(1.840142,0,0,1.840491,790.866575,-55.205448)"/>
<path style="fill-rule:evenodd;fill:rgb(0%,0%,0%);fill-opacity:1;stroke-width:3;stroke-linecap:butt;stroke-linejoin:miter;stroke:rgb(0%,0%,0%);stroke-opacity:1;stroke-miterlimit:4;" d="M 337.500808 227.362759 C 337.500808 234.264791 331.90299 239.861549 324.999651 239.861549 C 318.096311 239.861549 312.500616 234.264791 312.500616 227.362759 C 312.500616 220.458606 318.096311 214.861848 324.999651 214.861848 C 331.90299 214.861848 337.500808 220.458606 337.500808 227.362759 Z M 337.500808 227.362759 " transform="matrix(1.840142,0,0,1.840491,923.356806,-187.720785)"/>
<path style="fill-rule:evenodd;fill:rgb(0%,0%,0%);fill-opacity:1;stroke-width:3;stroke-linecap:butt;stroke-linejoin:miter;stroke:rgb(0%,0%,0%);stroke-opacity:1;stroke-miterlimit:4;" d="M 337.500808 227.362916 C 337.500808 234.264947 331.90299 239.861705 324.999651 239.861705 C 318.096311 239.861705 312.500616 234.264947 312.500616 227.362916 C 312.500616 220.458762 318.096311 214.862004 324.999651 214.862004 C 331.90299 214.862004 337.500808 220.458762 337.500808 227.362916 Z M 337.500808 227.362916 " transform="matrix(1.840142,0,0,1.840491,923.356806,-55.205448)"/>
<path style="fill-rule:evenodd;fill:rgb(0%,0%,0%);fill-opacity:1;stroke-width:3;stroke-linecap:butt;stroke-linejoin:miter;stroke:rgb(0%,0%,0%);stroke-opacity:1;stroke-miterlimit:4;" d="M 337.500276 227.362838 C 337.500276 234.264869 331.904581 239.861627 324.999119 239.861627 C 318.09578 239.861627 312.500084 234.264869 312.500084 227.362838 C 312.500084 220.458684 318.09578 214.861926 324.999119 214.861926 C 331.904581 214.861926 337.500276 220.458684 337.500276 227.362838 Z M 337.500276 227.362838 " transform="matrix(1.840142,0,0,1.840491,857.11169,-121.463117)"/>
<path style="fill-rule:evenodd;fill:rgb(100%,100%,100%);fill-opacity:1;stroke-width:3;stroke-linecap:butt;stroke-linejoin:miter;stroke:rgb(0%,0%,0%);stroke-opacity:1;stroke-miterlimit:4;" d="M 475.49997 265.362499 L 525.500355 265.362499 C 553.113711 265.362499 575.500739 287.747408 575.500739 315.3619 L 575.500739 365.361301 C 575.500739 392.975793 553.113711 415.362825 525.500355 415.362825 L 475.49997 415.362825 C 447.886614 415.362825 425.499586 392.975793 425.499586 365.361301 L 425.499586 315.3619 C 425.499586 287.747408 447.886614 265.362499 475.49997 265.362499 Z M 475.49997 265.362499 " transform="matrix(1.840142,0,0,1.840491,244.34452,-328.518331)"/>
<path style="fill-rule:evenodd;fill:rgb(0%,0%,0%);fill-opacity:1;stroke-width:3;stroke-linecap:butt;stroke-linejoin:miter;stroke:rgb(0%,0%,0%);stroke-opacity:1;stroke-miterlimit:4;" d="M 337.499808 227.362759 C 337.499808 234.264791 331.904112 239.861549 325.000773 239.861549 C 318.097434 239.861549 312.499616 234.264791 312.499616 227.362759 C 312.499616 220.458606 318.097434 214.861848 325.000773 214.861848 C 331.904112 214.861848 337.499808 220.458606 337.499808 227.362759 Z M 337.499808 227.362759 " transform="matrix(1.840142,0,0,1.840491,500.124271,-187.720785)"/>
<path style="fill-rule:evenodd;fill:rgb(0%,0%,0%);fill-opacity:1;stroke-width:3;stroke-linecap:butt;stroke-linejoin:miter;stroke:rgb(0%,0%,0%);stroke-opacity:1;stroke-miterlimit:4;" d="M 337.499808 227.362916 C 337.499808 234.264947 331.904112 239.861705 325.000773 239.861705 C 318.097434 239.861705 312.499616 234.264947 312.499616 227.362916 C 312.499616 220.458762 318.097434 214.862004 325.000773 214.862004 C 331.904112 214.862004 337.499808 220.458762 337.499808 227.362916 Z M 337.499808 227.362916 " transform="matrix(1.840142,0,0,1.840491,500.124271,-55.205448)"/>
<path style="fill-rule:evenodd;fill:rgb(0%,0%,0%);fill-opacity:1;stroke-width:3;stroke-linecap:butt;stroke-linejoin:miter;stroke:rgb(0%,0%,0%);stroke-opacity:1;stroke-miterlimit:4;" d="M 337.500871 227.362759 C 337.500871 234.264791 331.903053 239.861549 324.999714 239.861549 C 318.096375 239.861549 312.500679 234.264791 312.500679 227.362759 C 312.500679 220.458606 318.096375 214.861848 324.999714 214.861848 C 331.903053 214.861848 337.500871 220.458606 337.500871 227.362759 Z M 337.500871 227.362759 " transform="matrix(1.840142,0,0,1.840491,632.614502,-187.720785)"/>
<path style="fill-rule:evenodd;fill:rgb(0%,0%,0%);fill-opacity:1;stroke-width:3;stroke-linecap:butt;stroke-linejoin:miter;stroke:rgb(0%,0%,0%);stroke-opacity:1;stroke-miterlimit:4;" d="M 337.500871 227.362916 C 337.500871 234.264947 331.903053 239.861705 324.999714 239.861705 C 318.096375 239.861705 312.500679 234.264947 312.500679 227.362916 C 312.500679 220.458762 318.096375 214.862004 324.999714 214.862004 C 331.903053 214.862004 337.500871 220.458762 337.500871 227.362916 Z M 337.500871 227.362916 " transform="matrix(1.840142,0,0,1.840491,632.614502,-55.205448)"/>
<path style="fill-rule:evenodd;fill:rgb(100%,100%,100%);fill-opacity:1;stroke-width:3;stroke-linecap:butt;stroke-linejoin:miter;stroke:rgb(0%,0%,0%);stroke-opacity:1;stroke-miterlimit:4;" d="M 463.000087 2.862399 L 513.000472 2.862399 C 540.613829 2.862399 563.000857 25.247308 563.000857 52.8618 L 563.000857 102.861201 C 563.000857 130.475693 540.613829 152.862725 513.000472 152.862725 L 463.000087 152.862725 C 435.386731 152.862725 412.999703 130.475693 412.999703 102.861201 L 412.999703 52.8618 C 412.999703 25.247308 435.386731 2.862399 463.000087 2.862399 Z M 463.000087 2.862399 " transform="matrix(1.840142,0,0,1.840491,-23.396108,154.610687)"/>
<path style="fill-rule:evenodd;fill:rgb(0%,0%,0%);fill-opacity:1;stroke-width:3;stroke-linecap:butt;stroke-linejoin:miter;stroke:rgb(0%,0%,0%);stroke-opacity:1;stroke-miterlimit:4;" d="M 337.499925 227.362659 C 337.499925 234.264691 331.90423 239.861449 325.000891 239.861449 C 318.095429 239.861449 312.499733 234.264691 312.499733 227.362659 C 312.499733 220.458506 318.095429 214.861748 325.000891 214.861748 C 331.90423 214.861748 337.499925 220.458506 337.499925 227.362659 Z M 337.499925 227.362659 " transform="matrix(1.840142,0,0,1.840491,209.381868,-187.720601)"/>
<path style="fill-rule:evenodd;fill:rgb(0%,0%,0%);fill-opacity:1;stroke-width:3;stroke-linecap:butt;stroke-linejoin:miter;stroke:rgb(0%,0%,0%);stroke-opacity:1;stroke-miterlimit:4;" d="M 337.500989 227.362816 C 337.500989 234.264847 331.90317 239.861605 324.999831 239.861605 C 318.096492 239.861605 312.500796 234.264847 312.500796 227.362816 C 312.500796 220.458662 318.096492 214.861904 324.999831 214.861904 C 331.90317 214.861904 337.500989 220.458662 337.500989 227.362816 Z M 337.500989 227.362816 " transform="matrix(1.840142,0,0,1.840491,341.872098,-55.205264)"/>
<path style="fill-rule:evenodd;fill:rgb(0%,0%,0%);fill-opacity:1;stroke-width:3;stroke-linecap:butt;stroke-linejoin:miter;stroke:rgb(0%,0%,0%);stroke-opacity:1;stroke-miterlimit:4;" d="M 337.500457 227.362738 C 337.500457 234.264769 331.902639 239.861527 324.999299 239.861527 C 318.09596 239.861527 312.500265 234.264769 312.500265 227.362738 C 312.500265 220.458584 318.09596 214.861826 324.999299 214.861826 C 331.902639 214.861826 337.500457 220.458584 337.500457 227.362738 Z M 337.500457 227.362738 " transform="matrix(1.840142,0,0,1.840491,275.626983,-121.462933)"/>
<path style="fill-rule:evenodd;fill:rgb(100%,100%,100%);fill-opacity:1;stroke-width:3;stroke-linecap:butt;stroke-linejoin:miter;stroke:rgb(0%,0%,0%);stroke-opacity:1;stroke-miterlimit:4;" d="M 663.000337 40.362399 L 713.000721 40.362399 C 740.614078 40.362399 762.998983 62.747308 762.998983 90.3618 L 762.998983 140.361201 C 762.998983 167.975693 740.614078 190.362725 713.000721 190.362725 L 663.000337 190.362725 C 635.384857 190.362725 612.999952 167.975693 612.999952 140.361201 L 612.999952 90.3618 C 612.999952 62.747308 635.384857 40.362399 663.000337 40.362399 Z M 663.000337 40.362399 " transform="matrix(1.840142,0,0,1.840491,-682.167173,85.592282)"/>
<path style="fill-rule:evenodd;fill:rgb(0%,0%,0%);fill-opacity:1;stroke-width:3;stroke-linecap:butt;stroke-linejoin:miter;stroke:rgb(0%,0%,0%);stroke-opacity:1;stroke-miterlimit:4;" d="M 337.500175 227.362659 C 337.500175 234.264691 331.904479 239.861449 324.999017 239.861449 C 318.095678 239.861449 312.499982 234.264691 312.499982 227.362659 C 312.499982 220.458506 318.095678 214.861748 324.999017 214.861748 C 331.904479 214.861748 337.500175 220.458506 337.500175 227.362659 Z M 337.500175 227.362659 " transform="matrix(1.840142,0,0,1.840491,-81.360779,-187.720601)"/>
<path style="fill-rule:evenodd;fill:rgb(0%,0%,0%);fill-opacity:1;stroke-width:3;stroke-linecap:butt;stroke-linejoin:miter;stroke:rgb(0%,0%,0%);stroke-opacity:1;stroke-miterlimit:4;" d="M 337.499115 227.362816 C 337.499115 234.264847 331.90342 239.861605 325.00008 239.861605 C 318.096741 239.861605 312.501046 234.264847 312.501046 227.362816 C 312.501046 220.458662 318.096741 214.861904 325.00008 214.861904 C 331.90342 214.861904 337.499115 220.458662 337.499115 227.362816 Z M 337.499115 227.362816 " transform="matrix(1.840142,0,0,1.840491,51.129452,-55.205264)"/>
<path style="fill-rule:evenodd;fill:rgb(100%,100%,100%);fill-opacity:1;stroke-width:3;stroke-linecap:butt;stroke-linejoin:miter;stroke:rgb(0%,0%,0%);stroke-opacity:1;stroke-miterlimit:4;" d="M 638.00048 240.362499 L 688.000865 240.362499 C 715.614221 240.362499 737.999126 262.747408 737.999126 290.3619 L 737.999126 340.361301 C 737.999126 367.975793 715.614221 390.362825 688.000865 390.362825 L 638.00048 390.362825 C 610.385001 390.362825 588.000095 367.975793 588.000095 340.361301 L 588.000095 290.3619 C 588.000095 262.747408 610.385001 240.362499 638.00048 240.362499 Z M 638.00048 240.362499 " transform="matrix(1.840142,0,0,1.840491,-926.906072,-282.506061)"/>
<path style="fill-rule:evenodd;fill:rgb(0%,0%,0%);fill-opacity:1;stroke-width:3;stroke-linecap:butt;stroke-linejoin:miter;stroke:rgb(0%,0%,0%);stroke-opacity:1;stroke-miterlimit:4;" d="M 337.50085 227.362838 C 337.50085 234.264869 331.903031 239.861627 324.999692 239.861627 C 318.096353 239.861627 312.500657 234.264869 312.500657 227.362838 C 312.500657 220.458684 318.096353 214.861926 324.999692 214.861926 C 331.903031 214.861926 337.50085 220.458684 337.50085 227.362838 Z M 337.50085 227.362838 " transform="matrix(1.840142,0,0,1.840491,-305.858114,-121.463117)"/>
</g>
</svg>
