<?xml version="1.0" encoding="iso-8859-1"?>
<!-- Generator: Adobe Illustrator 19.0.0, SVG Export Plug-In . SVG Version: 6.00 Build 0)  -->
<svg version="1.1" id="Capa_1" xmlns="http://www.w3.org/2000/svg" xmlns:xlink="http://www.w3.org/1999/xlink" x="0px" y="0px"
	 viewBox="0 0 512.003 512.003" style="enable-background:new 0 0 512.003 512.003;" xml:space="preserve" fill="currentColor" stroke="currentColor">
<g>
	<g>
		<path d="M478.681,180.769c-7.128-21.43-28.686-33.83-50.145-30.163l-69.765-37.453c19.131-10.04,32.217-30.091,32.217-53.154
			C390.989,26.915,364.073,0,330.99,0s-59.999,26.915-59.999,59.999c0,3.881,0.384,7.672,1.091,11.349
			c-35.126-14.733-71.177-27.278-107.838-37.5C155.082,31.295,145.579,30,135.993,30C78.097,30,30.995,77.102,30.995,134.998
			s47.102,104.998,104.998,104.998c22.569,0,39.094-5.869,55.154-15.941c-5.712,11.423-6.087,12.007-7.192,14.895
			c-0.061,0.16-0.123,0.318-0.182,0.479c-1.947,5.271-2.86,10.768-2.781,16.218V358.36l-76.816,76.817
			c-17.544,17.544-17.544,46.09,0,63.634c17.59,17.59,46.042,17.592,63.634,0l89.998-89.998c8.501-8.5,13.183-19.8,13.183-31.816
			v89.998c0,24.813,20.187,44.999,44.999,44.999s44.999-20.187,44.999-44.999v-120c0-12.535-5.175-25.81-13.183-33.816
			l-67.062-67.062l10.819-21.637l16.985,25.478c8.365,12.548,22.361,20.039,37.44,20.039c4.83,0,9.613-0.774,14.235-2.308l90.002-30
			C473.808,229.819,486.553,204.365,478.681,180.769z M388.759,163.301l-24.398,8.131l-22.042-33.062L388.759,163.301z M330.989,30
			c16.542,0,29.999,13.458,29.999,29.999s-13.458,29.999-29.999,29.999c-16.542,0-29.999-13.458-29.999-29.999
			S314.447,30,330.989,30z M135.993,209.997c-41.354,0-74.999-33.644-74.999-74.999S94.639,60,135.993,60
			c6.863,0,13.657,0.924,20.194,2.746c35.111,9.79,69.646,21.78,103.306,35.849c-4.217,3.065-7.867,6.855-10.808,11.238
			c-0.058,0.086-0.115,0.174-0.173,0.261c-2.265,3.427-1.079,1.39-25.946,51.124c-5.011,4.109-9.62,7.962-14.096,11.705
			C178.952,197.606,164.135,209.997,135.993,209.997z M240.991,376.994c0,3.946-1.603,7.811-4.396,10.604l-89.998,89.998
			c-5.866,5.865-15.342,5.866-21.209,0c-5.847-5.847-5.847-15.362,0-21.209l81.209-81.209c2.813-2.813,4.394-6.628,4.394-10.606
			v-60.526l29.999,30.737V376.994z M440.736,209.228c-96.682,32.227-91.256,30.768-94.747,30.768c-5.026,0-9.691-2.497-12.48-6.68
			l-31.321-46.983c-0.023-0.035-0.051-0.065-0.074-0.1c-6.44-9.505-20.642-8.443-25.76,1.604c-0.019,0.038-0.042,0.071-0.061,0.108
			l-27.212,54.424c-2.888,5.774-1.756,12.749,2.81,17.314l74.706,74.706c2.424,2.424,4.396,8.078,4.396,12.604V466.99
			c0,8.271-6.729,15-15,15c-8.271,0-15-6.729-15-15V359.416c0-3.915-1.53-7.675-4.266-10.477l-81.209-83.208
			c-0.042-0.044-0.085-0.087-0.128-0.13c-4.656-4.656-5.691-11.749-2.742-17.461l59.909-119.816
			c0.001-0.002,0.002-0.003,0.002-0.004c5.079-10.279,19.491-11.249,25.914-1.641l47.284,70.927
			c3.752,5.628,10.809,8.05,17.223,5.91l68.273-22.753c7.894-2.637,16.343,1.594,18.971,9.491
			C452.844,198.115,448.599,206.605,440.736,209.228z"/>
	</g>
</g>
<g>
</g>
<g>
</g>
<g>
</g>
<g>
</g>
<g>
</g>
<g>
</g>
<g>
</g>
<g>
</g>
<g>
</g>
<g>
</g>
<g>
</g>
<g>
</g>
<g>
</g>
<g>
</g>
<g>
</g>
</svg>
