<svg id="Capa_1" enable-background="new 0 0 512 512" height="512" viewBox="0 0 512 512" width="512" xmlns="http://www.w3.org/2000/svg" fill="currentColor" stroke="currentColor"><g><path d="m399.443 426.649c-2.668-3.86-7.983-4.834-11.854-2.168l-10.519 7.264c-35.674 24.627-77.539 37.644-121.07 37.644-20.384 0-40.555-2.884-59.95-8.57-3.98-1.161-8.143 1.113-9.308 5.087-1.165 3.976 1.112 8.142 5.087 9.308 20.768 6.089 42.357 9.176 64.171 9.176 46.589 0 91.401-13.936 129.593-40.3l5.188-3.583 7.165 10.378-5.189 3.582c-40.306 27.825-87.596 42.533-136.757 42.533-64.373 0-124.894-25.068-170.412-70.588-45.52-45.518-70.588-106.039-70.588-170.412 0-37.966 9.082-75.832 26.265-109.507 2.058-4.034.602-8.972-3.316-11.24l-11.977-6.937 49.074-28.236-.076 56.616-11.317-6.555c-2.024-1.174-4.47-1.462-6.718-.792-2.242.67-4.131 2.253-5.182 4.348-15.794 31.519-24.142 66.895-24.142 102.303 0 43.975 12.583 86.704 36.389 123.569 23.175 35.889 55.764 64.529 94.245 82.826 3.739 1.776 8.215.188 9.994-3.553 1.778-3.741.188-8.216-3.553-9.994-74.158-35.259-122.075-110.957-122.075-192.848 0-30.783 6.75-61.535 19.569-89.377l14.98 8.677c2.627 1.521 5.892 1.527 8.522.013 2.632-1.514 4.269-4.341 4.272-7.376l.105-79.055c.004-3.036-1.626-5.866-4.253-7.387s-5.893-1.523-8.52-.012l-68.518 39.426c-2.631 1.514-4.269 4.339-4.273 7.374s1.623 5.866 4.251 7.39l16.43 9.517c-16.488 34.369-25.176 72.543-25.176 110.81 0 68.38 26.629 132.667 74.98 181.019 48.353 48.352 112.64 74.98 181.02 74.98 52.22 0 102.456-15.626 145.278-45.188l10.524-7.265c3.869-2.675 4.846-7.978 2.167-11.854z"/><path d="m503.367 376.098-16.439-9.502c81.493-170.306-43.167-366.596-230.928-366.596-22.618 0-45.05 2.947-66.671 8.759-4 1.075-6.371 5.19-5.296 9.19 1.076 4 5.188 6.366 9.19 5.296 20.352-5.471 41.473-8.245 62.777-8.245 133.192 0 241 107.789 241 241 0 37.886-9.047 75.684-26.166 109.312-2.048 4.031-.588 8.964 3.33 11.232l11.982 6.926-49.046 28.282.021-56.617 11.324 6.544c2.026 1.173 4.477 1.459 6.723.785 2.244-.674 4.13-2.262 5.173-4.353 15.733-31.467 24.049-66.777 24.049-102.111 0-125.935-102.455-228.39-228.39-228.39-46.587 0-91.399 13.936-129.592 40.301l-5.188 3.582-7.165-10.378 5.189-3.582c13.041-9.003 26.978-16.727 41.422-22.957 3.803-1.641 5.557-6.054 3.916-9.857-1.64-3.803-6.055-5.556-9.857-3.916-15.348 6.62-30.151 14.824-44.002 24.386l-10.53 7.27c-3.859 2.673-4.828 7.99-2.161 11.849l14.521 21.034c2.667 3.87 7.973 4.865 11.858 2.177l10.52-7.263c35.674-24.628 77.54-37.646 121.069-37.646 117.663 0 213.39 95.727 213.39 213.39 0 30.71-6.722 61.398-19.488 89.195l-14.991-8.664c-2.627-1.517-5.89-1.518-8.519-.003-2.627 1.515-4.262 4.34-4.266 7.38l-.031 79.049c-.004 3.037 1.627 5.868 4.256 7.388 2.65 1.531 5.917 1.511 8.523.005l68.489-39.492c2.626-1.516 4.259-4.342 4.262-7.374.002-3.033-1.626-5.861-4.258-7.386z"/><path d="m242.949 156.873c8.79-5.075 19.71-5.075 28.5 0l29.172 16.843c13.247 7.649 29.709 7.65 42.952.007l30.584-17.618 28.22 48.877c2.072 3.588 6.659 4.815 10.245 2.745 3.587-2.071 4.816-6.658 2.745-10.245l-31.415-54.411c-2.369-4.106-7.637-5.521-11.743-3.154l-36.128 20.812c-8.624 4.979-19.338 4.977-27.96-.002l-29.172-16.843c-13.415-7.746-30.083-7.746-43.5 0l-39.749 22.949c-6.584-.476-13.047-2.458-18.81-5.784l-36.675-21.135c-4.113-2.375-9.371-.968-11.746 3.149l-55.857 96.748c-1.151 1.989-1.458 4.308-.864 6.529s2.019 4.078 4.014 5.229l26.086 15.033c-2.344 6.218-1.992 13.4 1.582 19.591l5.829 10.096c3.506 6.071 9.384 9.936 15.795 11.1-.47 4.628.454 9.44 2.952 13.767l5.829 10.096c5.043 8.734 14.954 12.857 24.259 11.057.337 3.061 1.298 6.101 2.934 8.934l5.828 10.096c5.691 9.858 17.588 13.852 27.844 10.053.421 2.724 1.343 5.417 2.802 7.944l5.829 10.096c6.297 10.907 20.344 14.762 31.356 8.402l10.803-6.237c2.727-1.574 5.135-3.545 7.166-5.833l22.019 12.713c11.137 6.431 25.353 2.475 31.571-8.781l5.638-10.206c1.274-2.307 2.104-4.751 2.518-7.229l1.887 1.089c5.38 3.106 11.641 3.9 17.628 2.235 5.986-1.665 10.938-5.577 13.942-11.017l5.637-10.205c1.605-2.906 2.505-6.029 2.757-9.163 8.883 1.117 18.005-3.063 22.757-11.296l5.829-10.097c2.289-3.965 3.258-8.337 3.041-12.603 1.239-.143 2.478-.388 3.703-.735 6.024-1.712 10.977-5.691 13.943-11.206l5.524-10.269c4.079-7.58 3.525-16.35-.752-23.115l25.96-15.023c4.102-2.371 5.513-7.64 3.144-11.746l-6.47-11.205c-2.072-3.588-6.66-4.814-10.245-2.745-3.587 2.071-4.816 6.658-2.745 10.245l3.272 5.669-25.286 14.633-98.577-56.914c.783-1.788 1.424-3.662 1.907-5.61.998-4.021-1.452-8.088-5.472-9.087-4.023-.999-8.089 1.451-9.087 5.472-2.084 8.393-9.457 14.612-18.319 15.025-5.84.269-11.396-1.928-15.466-6.283-5.483-5.875-14.234-7.139-21.282-3.07l-9.182 5.3c-11.644 6.722-26.583 2.719-33.304-8.923l-1.594-2.762c3.226-1.853 52.97-30.58 55.397-31.982zm-120.7 131.916-5.829-10.096c-2.192-3.799-.887-8.674 2.912-10.867l23.97-13.839c6.521-3.766 14.98-1.622 18.829 5.045 3.8 6.582 1.536 15.028-5.045 18.829-5.563 3.212-4.263 2.461-23.971 13.839-3.8 2.195-8.673.887-10.866-2.911zm24.576 34.963-5.829-10.096c-2.189-3.794-.889-8.661 2.897-10.858l16.31-9.416c6.534-3.769 14.981-1.605 18.823 5.049 3.8 6.582 1.536 15.028-5.046 18.828l-16.288 9.404c-3.801 2.194-8.673.887-10.867-2.911zm33.021 30.087-5.828-10.096c-2.193-3.799-.887-8.673 2.911-10.866l15.192-8.771c6.608-3.813 15.022-1.547 18.828 5.046 3.809 6.597 1.553 15.019-5.045 18.828l-15.191 8.771c-3.798 2.194-8.675.886-10.867-2.912zm58.144 24.767-10.803 6.237c-3.796 2.194-8.673.888-10.866-2.912l-5.829-10.096c-2.193-3.799-.887-8.673 2.912-10.866l10.803-6.237c6.623-3.824 15.053-1.494 18.828 5.046 3.809 6.598 1.553 15.019-5.045 18.828zm-8.04-165.074 9.181-5.3c.95-.549 2.138-.415 2.822.316 6.652 7.123 16.101 11.178 25.861 11.066 8.391-.097 16.336-3.123 22.629-8.644 144.406 83.373 92.4 53.334 104.372 60.259 3.749 2.164 5.078 6.845 3.027 10.657l-5.524 10.269c-2.137 3.971-7.11 5.357-10.983 3.12-44.545-25.725-7.107-4.101-51.851-29.934-3.589-2.07-8.175-.843-10.245 2.745-2.071 3.587-.842 8.174 2.745 10.245l46.973 27.12c3.784 2.198 5.081 7.063 2.892 10.855l-5.829 10.097c-2.192 3.797-7.066 5.106-10.866 2.911-18.527-10.697-28.471-16.437-46.953-27.108-3.586-2.071-8.175-.843-10.245 2.745-2.071 3.587-.842 8.174 2.745 10.245l36.706 21.193c3.708 2.159 5.037 6.961 2.959 10.721l-5.636 10.204c-1.042 1.885-2.758 3.241-4.832 3.818-2.075.576-4.245.301-6.109-.774-50.117-28.937-25.176-14.535-36.995-21.359-3.59-2.071-8.175-.843-10.245 2.745-2.071 3.587-.842 8.174 2.745 10.245 10.652 6.15 7.016 4.05 16.476 9.513 3.728 2.151 5.066 6.967 2.985 10.734l-5.638 10.206c-2.151 3.895-7.072 5.274-10.94 3.043l-22.847-13.191c1.377-6.861.228-13.902-3.303-20.017-5.915-10.247-17.226-15.482-28.293-14.194.417-5.694-.875-11.38-3.792-16.433-3.844-6.658-10.051-11.421-17.477-13.411-3.536-.948-7.146-1.213-10.678-.815.416-5.565-.775-11.307-3.77-16.494-3.539-6.128-9.078-10.65-15.727-12.883 3.803-8.216 3.694-18.096-1.167-26.515-7.953-13.777-25.542-18.49-39.319-10.535l-23.97 13.839c-.06.035-.12.07-.179.105l-22.852-13.169 49.462-85.672 31.134 17.942c2.496 1.44 5.091 2.692 7.758 3.749-2.175 1.829-3.739 4.274-4.489 7.076-.968 3.613-.471 7.387 1.399 10.626l2.093 3.625c10.853 18.804 34.984 25.269 53.79 14.414z"/></g></svg>