<?xml version="1.0" encoding="iso-8859-1"?>
<!-- Generator: Adobe Illustrator 19.0.0, SVG Export Plug-In . SVG Version: 6.00 Build 0)  -->
<svg version="1.1" id="Capa_1" xmlns="http://www.w3.org/2000/svg" xmlns:xlink="http://www.w3.org/1999/xlink" x="0px" y="0px"
	 viewBox="0 0 511.995 511.995" style="enable-background:new 0 0 511.995 511.995;" xml:space="preserve" fill="currentColor" stroke="currentColor">
<g>
	<g>
		<path d="M470.14,150.681c-2.248-5.387-4.711-10.681-7.366-15.875l-8.992-62.57c-0.586-4.101-4.383-6.948-8.486-6.363
			c-4.101,0.587-6.949,4.386-6.363,8.486l4.069,28.455c-18.149-24.664-41.131-45.797-67.437-61.653
			c-3.549-2.139-8.157-0.995-10.295,2.552c-2.139,3.547-0.996,8.157,2.551,10.295c25.966,15.65,48.467,36.797,65.849,61.517
			l-27.905-12.997c-3.755-1.748-8.217-0.122-9.965,3.633c-1.748,3.755-0.123,8.216,3.632,9.965l48.45,22.564
			c3.072,5.79,5.888,11.716,8.415,17.769c1.202,2.878,3.989,4.613,6.924,4.613c0.963,0,1.942-0.187,2.886-0.581
			C469.93,158.895,471.735,154.504,470.14,150.681z"/>
	</g>
</g>
<g>
	<g>
		<path d="M511.386,202.831c1.632-3.807-0.132-8.216-3.939-9.848c-3.81-1.631-8.216,0.132-9.848,3.939l-10.421,24.316
			c-0.953-11.908-2.796-23.711-5.55-35.262c-0.96-4.029-5.004-6.515-9.035-5.556c-4.029,0.96-6.517,5.005-5.556,9.035
			c3.226,13.532,5.121,27.438,5.698,41.45l-18.115-27.172c-2.298-3.447-6.954-4.378-10.4-2.081
			c-3.447,2.298-4.378,6.955-2.08,10.401l30.121,45.181c-4.026,51.437-25.983,99.253-62.859,136.13
			c-6.827,6.827-14.035,13.129-21.565,18.915c27.364-31.008,43.996-71.7,43.996-116.209c0-30.869-8.115-61.236-23.467-87.817
			c-1.156-2.002-2.365-3.971-3.598-5.923l2.988-33.858c0.364-4.126-2.686-7.766-6.812-8.13c-4.117-0.364-7.766,2.686-8.13,6.812
			l-1.474,16.699c-12.618-15.196-27.745-28.27-44.729-38.502c-3.55-2.138-8.157-0.994-10.294,2.554
			c-2.137,3.548-0.994,8.157,2.554,10.294c23.342,14.063,42.882,33.965,56.506,57.556c7.865,13.618,13.65,28.327,17.219,43.595
			l-12.031-4.813c-3.847-1.54-8.21,0.332-9.749,4.178c-1.539,3.846,0.332,8.211,4.178,9.749l20.656,8.263
			c0.773,6.4,1.183,12.858,1.183,19.343c0,18.468-3.139,36.215-8.894,52.747l-8.562-9.633c-2.752-3.096-7.493-3.375-10.588-0.623
			c-3.096,2.751-3.375,7.492-0.623,10.588l13.459,15.142c-11.779,25.044-29.827,46.579-52.117,62.561
			c16.393-20.488,26.212-46.452,26.212-74.67c0-17.54-3.792-34.211-10.598-49.237l7.656-21.388c1.393-3.9-0.64-8.192-4.541-9.585
			c-3.899-1.394-8.193,0.64-9.585,4.54l-3.23,9.045c-21.514-32.002-58.052-53.101-99.426-53.101c-4.142,0-7.5,3.357-7.5,7.5
			c0,4.142,3.358,7.5,7.5,7.5c4.368,0,8.672,0.273,12.901,0.795l-17.495,24.411c-2.413,3.367-1.64,8.052,1.727,10.465
			c1.324,0.948,2.85,1.404,4.363,1.404c2.336,0,4.638-1.088,6.103-3.132l21.397-29.857c43.686,12.606,75.728,52.949,75.728,100.638
			c0,21.712-6.643,41.901-18.001,58.644l-7.392-10.78c-2.343-3.416-7.01-4.286-10.427-1.943c-3.416,2.342-4.286,7.011-1.944,10.427
			l10.006,14.591c-9.866,10.696-21.925,19.336-35.458,25.202c-28.442-19.041-49.73-43.686-63.257-73.33
			c-0.046-0.101-0.089-0.205-0.135-0.307l11.877-16.033c2.465-3.329,1.766-8.025-1.562-10.491s-8.026-1.767-10.491,1.562
			l-6.318,8.529c-6.957-20.37-10.731-42.778-11.211-66.872c-1.056-53.027,14.337-96.304,14.571-96.955
			c1.416-3.893-0.592-8.195-4.485-9.611c-3.894-1.417-8.196,0.593-9.611,4.485c-0.458,1.26-7.908,22.065-12.319,52.792
			l-16.746-22.034c-2.506-3.298-7.212-3.939-10.509-1.434c-3.298,2.507-3.939,7.212-1.433,10.51l26.325,34.574
			c-0.652,8.72-0.971,17.935-0.797,27.492c0.601,33.028,7.021,63.229,19.083,89.766c5.132,11.291,11.313,21.896,18.466,31.819
			l-4.4,0.838c-4.069,0.775-6.739,4.702-5.964,8.771c0.685,3.595,3.83,6.098,7.359,6.098c0.465,0,0.938-0.044,1.412-0.134
			l12.087-2.303c8.924,10.261,19.055,19.648,30.356,28.125c-6.807,1.588-13.866,2.513-21.106,2.697H253.3
			c-33.71-0.857-63.505-17.727-82.063-43.265l8.574-11.302c2.503-3.3,1.858-8.004-1.442-10.508
			c-3.299-2.502-8.004-1.857-10.508,1.443l-5.061,6.671c-7.364-14.321-11.524-30.549-11.524-47.73
			c0-21.545,6.49-42.237,18.767-59.839c2.37-3.397,1.537-8.072-1.86-10.442c-3.398-2.369-8.072-1.537-10.442,1.861
			c-3.854,5.525-7.19,11.324-10.031,17.329l-2.998-3.165c-2.849-3.007-7.596-3.136-10.603-0.286
			c-3.007,2.849-3.135,7.596-0.287,10.603l7.85,8.286c-3.561,11.438-5.395,23.426-5.395,35.655c0,28.219,9.819,54.183,26.212,74.67
			c-34.709-24.889-59.14-63.231-65.61-107.336l20.769-26.877c2.533-3.277,1.929-7.988-1.349-10.521
			c-3.277-2.533-7.988-1.929-10.521,1.349l-10.6,13.717c-0.003-0.372-0.014-0.742-0.014-1.115
			c0-37.609,13.251-74.192,37.312-103.012c2.655-3.18,2.229-7.909-0.951-10.563c-3.18-2.655-7.909-2.229-10.564,0.95
			c-3.464,4.149-6.717,8.45-9.766,12.876v-20.492c0-4.143-3.358-7.5-7.5-7.5s-7.5,3.357-7.5,7.5v46.914
			c-10.473,22.85-16.032,47.873-16.032,73.327c0,44.509,16.632,85.201,43.996,116.209c-7.53-5.786-14.739-12.088-21.565-18.915
			c-36.877-36.877-58.833-84.693-62.859-136.13l30.121-45.181c2.298-3.446,1.367-8.103-2.08-10.401
			c-3.446-2.296-8.103-1.366-10.4,2.081l-18.126,27.188c1.324-32.652,9.816-63.964,24.731-92.168l48.583-22.627
			c3.755-1.749,5.381-6.21,3.632-9.965c-1.75-3.755-6.21-5.382-9.965-3.633L78.164,115.6c7.632-10.858,16.309-21.107,26.005-30.609
			c2.958-2.899,3.007-7.648,0.108-10.606c-2.899-2.958-7.647-3.007-10.606-0.107c-9.055,8.873-17.274,18.359-24.651,28.351
			l4.042-28.269c0.586-4.1-2.262-7.899-6.363-8.486c-4.097-0.585-7.899,2.263-8.486,6.363l-9.02,62.388
			c-13.667,26.756-21.973,56.05-24.392,86.579l-10.406-24.281c-1.632-3.808-6.041-5.57-9.848-3.939
			c-3.807,1.632-5.571,6.041-3.939,9.848l24.268,56.703c2.535,30.531,10.985,59.846,24.797,86.609l-23.244-14.787
			c-3.496-2.225-8.13-1.193-10.354,2.302c-2.223,3.495-1.192,8.131,2.302,10.354l49.23,31.32c7.281,10.087,15.41,19.671,24.38,28.64
			c15.871,15.87,33.643,29.143,52.793,39.636l-27.914,0.06c-4.142,0.009-7.493,3.374-7.484,7.516c0.009,4.137,3.365,7.484,7.5,7.484
			c0.005,0,0.011,0,0.017,0l61.173-0.117c24.684,8.781,50.955,13.359,77.929,13.359c26.993,0,53.281-4.583,77.978-13.375
			c0.025,0,0.05,0.004,0.076,0.004l61.049,0.129c0.006,0,0.011,0,0.017,0c4.134,0,7.491-3.348,7.5-7.484
			c0.009-4.142-3.342-7.507-7.484-7.516l-27.914-0.06c19.15-10.493,36.923-23.766,52.793-39.636
			c8.969-8.969,17.098-18.553,24.38-28.64l49.23-31.32c3.495-2.223,4.525-6.858,2.302-10.354c-2.224-3.495-6.859-4.526-10.354-2.302
			l-23.244,14.787c13.797-26.735,22.243-56.015,24.788-86.509L511.386,202.831z"/>
	</g>
</g>
<g>
	<g>
		<path d="M239.369,128.374c-0.587-4.101-4.393-6.951-8.486-6.362c-30.513,4.365-59.471,16.799-83.744,35.958
			c-3.251,2.566-3.807,7.282-1.241,10.534c1.48,1.875,3.675,2.853,5.892,2.853c1.627,0,3.266-0.527,4.642-1.613
			c22.199-17.522,48.679-28.893,76.575-32.884C237.108,136.274,239.956,132.474,239.369,128.374z"/>
	</g>
</g>
<g>
</g>
<g>
</g>
<g>
</g>
<g>
</g>
<g>
</g>
<g>
</g>
<g>
</g>
<g>
</g>
<g>
</g>
<g>
</g>
<g>
</g>
<g>
</g>
<g>
</g>
<g>
</g>
<g>
</g>
</svg>
